<svg width="18" height="17" viewBox="0 0 18 17" fill="none" xmlns="http://www.w3.org/2000/svg">
<path d="M17.1816 1.96316C17.1897 1.63025 17.0653 1.30774 16.8357 1.06654C16.6061 0.825342 16.2901 0.685207 15.9572 0.676951L5.91331 0.429393C5.7467 0.422388 5.58036 0.448633 5.42401 0.5066C5.26765 0.564566 5.1244 0.653091 5.00262 0.76701C4.88085 0.880929 4.78298 1.01796 4.71472 1.17011C4.64647 1.32226 4.6092 1.48647 4.60509 1.65318C4.60098 1.81988 4.63012 1.98574 4.69079 2.14106C4.75147 2.29639 4.84247 2.43808 4.95848 2.55786C5.0745 2.67764 5.21321 2.77311 5.36652 2.83871C5.51984 2.90431 5.68468 2.93872 5.85143 2.93993L12.8646 3.11279L0.818453 14.5794C0.577206 14.809 0.437063 15.1251 0.428857 15.4581C0.42065 15.791 0.54505 16.1136 0.774691 16.3549C1.00433 16.5961 1.3204 16.7363 1.65337 16.7445C1.98634 16.7527 2.30893 16.6283 2.55018 16.3986L14.5963 4.93203L14.4235 11.9452C14.4211 12.2745 14.5481 12.5915 14.7772 12.8281C15.0063 13.0646 15.3191 13.2017 15.6483 13.2098C15.9775 13.2179 16.2967 13.0964 16.5372 12.8714C16.7777 12.6465 16.9202 12.3361 16.934 12.0071L17.1816 1.96316Z" fill="white"/>
</svg>
