<svg width="82" height="14" viewBox="0 0 82 14" fill="none" xmlns="http://www.w3.org/2000/svg">
<path d="M4.61084 4.03838L0.545686 4.62776L0.473685 4.64242C0.36469 4.67135 0.265327 4.72869 0.185742 4.80859C0.106158 4.88849 0.0492035 4.98807 0.0206956 5.09718C-0.00781232 5.20629 -0.00685245 5.32101 0.0234771 5.42962C0.0538067 5.53824 0.112419 5.63686 0.19333 5.71541L3.13834 8.58205L2.44382 12.6313L2.43554 12.7014C2.42887 12.8141 2.45227 12.9266 2.50337 13.0273C2.55446 13.128 2.63139 13.2133 2.7263 13.2745C2.82121 13.3357 2.93068 13.3706 3.04349 13.3756C3.15631 13.3805 3.26843 13.3555 3.36836 13.3029L7.00406 11.3913L10.6315 13.3029L10.6952 13.3322C10.8004 13.3736 10.9147 13.3863 11.0264 13.369C11.1381 13.3516 11.2432 13.3049 11.3308 13.2336C11.4185 13.1622 11.4856 13.0689 11.5253 12.963C11.565 12.8572 11.5758 12.7427 11.5567 12.6313L10.8615 8.58205L13.8078 5.71478L13.8575 5.66062C13.9285 5.57318 13.975 5.46848 13.9924 5.35719C14.0097 5.24591 13.9973 5.132 13.9563 5.0271C13.9153 4.92219 13.8472 4.83002 13.759 4.75998C13.6708 4.68995 13.5656 4.64454 13.4542 4.6284L9.389 4.03838L7.57178 0.355523C7.5192 0.248818 7.4378 0.158965 7.33679 0.0961326C7.23578 0.0333008 7.1192 0 7.00024 0C6.88128 0 6.7647 0.0333008 6.66369 0.0961326C6.56268 0.158965 6.48128 0.248818 6.4287 0.355523L4.61084 4.03838Z" fill="#F5D73F"/>
<path d="M21.6108 4.03838L17.5457 4.62776L17.4737 4.64242C17.3647 4.67135 17.2653 4.72869 17.1857 4.80859C17.1062 4.88849 17.0492 4.98807 17.0207 5.09718C16.9922 5.20629 16.9931 5.32101 17.0235 5.42962C17.0538 5.53824 17.1124 5.63686 17.1933 5.71541L20.1383 8.58205L19.4438 12.6313L19.4355 12.7014C19.4289 12.8141 19.4523 12.9266 19.5034 13.0273C19.5545 13.128 19.6314 13.2133 19.7263 13.2745C19.8212 13.3357 19.9307 13.3706 20.0435 13.3756C20.1563 13.3805 20.2684 13.3555 20.3684 13.3029L24.0041 11.3913L27.6315 13.3029L27.6952 13.3322C27.8004 13.3736 27.9147 13.3863 28.0264 13.369C28.1381 13.3516 28.2432 13.3049 28.3308 13.2336C28.4185 13.1622 28.4856 13.0689 28.5253 12.963C28.565 12.8572 28.5758 12.7427 28.5567 12.6313L27.8615 8.58205L30.8078 5.71478L30.8575 5.66062C30.9285 5.57318 30.975 5.46848 30.9924 5.35719C31.0097 5.24591 30.9973 5.132 30.9563 5.0271C30.9153 4.92219 30.8472 4.83002 30.759 4.75998C30.6708 4.68995 30.5656 4.64454 30.4542 4.6284L26.389 4.03838L24.5718 0.355523C24.5192 0.248818 24.4378 0.158965 24.3368 0.0961326C24.2358 0.0333008 24.1192 0 24.0002 0C23.8813 0 23.7647 0.0333008 23.6637 0.0961326C23.5627 0.158965 23.4813 0.248818 23.4287 0.355523L21.6108 4.03838Z" fill="#F5D73F"/>
<path d="M38.6108 4.03838L34.5457 4.62776L34.4737 4.64242C34.3647 4.67135 34.2653 4.72869 34.1857 4.80859C34.1062 4.88849 34.0492 4.98807 34.0207 5.09718C33.9922 5.20629 33.9931 5.32101 34.0235 5.42962C34.0538 5.53824 34.1124 5.63686 34.1933 5.71541L37.1383 8.58205L36.4438 12.6313L36.4355 12.7014C36.4289 12.8141 36.4523 12.9266 36.5034 13.0273C36.5545 13.128 36.6314 13.2133 36.7263 13.2745C36.8212 13.3357 36.9307 13.3706 37.0435 13.3756C37.1563 13.3805 37.2684 13.3555 37.3684 13.3029L41.0041 11.3913L44.6315 13.3029L44.6952 13.3322C44.8004 13.3736 44.9147 13.3863 45.0264 13.369C45.1381 13.3516 45.2432 13.3049 45.3308 13.2336C45.4185 13.1622 45.4856 13.0689 45.5253 12.963C45.565 12.8572 45.5758 12.7427 45.5567 12.6313L44.8615 8.58205L47.8078 5.71478L47.8575 5.66062C47.9285 5.57318 47.975 5.46848 47.9924 5.35719C48.0097 5.24591 47.9973 5.132 47.9563 5.0271C47.9153 4.92219 47.8472 4.83002 47.759 4.75998C47.6708 4.68995 47.5656 4.64454 47.4542 4.6284L43.389 4.03838L41.5718 0.355523C41.5192 0.248818 41.4378 0.158965 41.3368 0.0961326C41.2358 0.0333008 41.1192 0 41.0002 0C40.8813 0 40.7647 0.0333008 40.6637 0.0961326C40.5627 0.158965 40.4813 0.248818 40.4287 0.355523L38.6108 4.03838Z" fill="#F5D73F"/>
<path d="M55.6108 4.03838L51.5457 4.62776L51.4737 4.64242C51.3647 4.67135 51.2653 4.72869 51.1857 4.80859C51.1062 4.88849 51.0492 4.98807 51.0207 5.09718C50.9922 5.20629 50.9931 5.32101 51.0235 5.42962C51.0538 5.53824 51.1124 5.63686 51.1933 5.71541L54.1383 8.58205L53.4438 12.6313L53.4355 12.7014C53.4289 12.8141 53.4523 12.9266 53.5034 13.0273C53.5545 13.128 53.6314 13.2133 53.7263 13.2745C53.8212 13.3357 53.9307 13.3706 54.0435 13.3756C54.1563 13.3805 54.2684 13.3555 54.3684 13.3029L58.0041 11.3913L61.6315 13.3029L61.6952 13.3322C61.8004 13.3736 61.9147 13.3863 62.0264 13.369C62.1381 13.3516 62.2432 13.3049 62.3308 13.2336C62.4185 13.1622 62.4856 13.0689 62.5253 12.963C62.565 12.8572 62.5758 12.7427 62.5567 12.6313L61.8615 8.58205L64.8078 5.71478L64.8575 5.66062C64.9285 5.57318 64.975 5.46848 64.9924 5.35719C65.0097 5.24591 64.9973 5.132 64.9563 5.0271C64.9153 4.92219 64.8472 4.83002 64.759 4.75998C64.6708 4.68995 64.5656 4.64454 64.4542 4.6284L60.389 4.03838L58.5718 0.355523C58.5192 0.248818 58.4378 0.158965 58.3368 0.0961326C58.2358 0.0333008 58.1192 0 58.0002 0C57.8813 0 57.7647 0.0333008 57.6637 0.0961326C57.5627 0.158965 57.4813 0.248818 57.4287 0.355523L55.6108 4.03838Z" fill="#F5D73F"/>
<path d="M72.6108 4.03838L68.5457 4.62776L68.4737 4.64242C68.3647 4.67135 68.2653 4.72869 68.1857 4.80859C68.1062 4.88849 68.0492 4.98807 68.0207 5.09718C67.9922 5.20629 67.9931 5.32101 68.0235 5.42962C68.0538 5.53824 68.1124 5.63686 68.1933 5.71541L71.1383 8.58205L70.4438 12.6313L70.4355 12.7014C70.4289 12.8141 70.4523 12.9266 70.5034 13.0273C70.5545 13.128 70.6314 13.2133 70.7263 13.2745C70.8212 13.3357 70.9307 13.3706 71.0435 13.3756C71.1563 13.3805 71.2684 13.3555 71.3684 13.3029L75.0041 11.3913L78.6315 13.3029L78.6952 13.3322C78.8004 13.3736 78.9147 13.3863 79.0264 13.369C79.1381 13.3516 79.2432 13.3049 79.3308 13.2336C79.4185 13.1622 79.4856 13.0689 79.5253 12.963C79.565 12.8572 79.5758 12.7427 79.5567 12.6313L78.8615 8.58205L81.8078 5.71478L81.8575 5.66062C81.9285 5.57318 81.975 5.46848 81.9924 5.35719C82.0097 5.24591 81.9973 5.132 81.9563 5.0271C81.9153 4.92219 81.8472 4.83002 81.759 4.75998C81.6708 4.68995 81.5656 4.64454 81.4542 4.6284L77.389 4.03838L75.5718 0.355523C75.5192 0.248818 75.4378 0.158965 75.3368 0.0961326C75.2358 0.0333008 75.1192 0 75.0002 0C74.8813 0 74.7647 0.0333008 74.6637 0.0961326C74.5627 0.158965 74.4813 0.248818 74.4287 0.355523L72.6108 4.03838Z" fill="#F5D73F"/>
</svg>
